<svg xmlns="http://www.w3.org/2000/svg" width="632" height="414" viewBox="0 0 632 414" role="img" aria-label="big against duckdb per query: intersect 1.69x, group_by 1.43x and top_n 1.82x faster; count_ge 1.50x, sum 1.34x and distinct 2.09x slower" font-family='system-ui,-apple-system,"Segoe UI",Roboto,Helvetica,Arial,sans-serif'>
<text x="28.0" y="28.0" font-size="15" fill="#6e6d68" font-weight="600" text-anchor="start">big against duckdb, one query at a time</text>
<text x="28.0" y="50.0" font-size="12" fill="#86857e" font-weight="400" text-anchor="start">above the line big wins the query · below it duckdb does</text>
<text x="28.0" y="68.0" font-size="11" fill="#86857e" font-weight="400" text-anchor="start">column length is log-scaled, so ahead and behind are symmetric</text>
<path d="M28.0,226.0 H604.0" stroke="#8f8e88" stroke-opacity="0.45" stroke-width="1" shape-rendering="crispEdges"/>
<path d="M64.0,226.0 V289.9 A4.0,4.0 0 0 0 68.0,293.9 H84.0 A4.0,4.0 0 0 0 88.0,289.9 V226.0 Z" fill="#e34948"/>
<text x="76.0" y="310.9" font-size="11.5" fill="#6e6d68" font-weight="400" text-anchor="middle" style="font-variant-numeric:tabular-nums">1.50× slower</text>
<text x="76.0" y="398.0" font-size="12" fill="#7f7e77" font-weight="400" text-anchor="middle">count_ge</text>
<path d="M160.0,226.0 V142.2 A4.0,4.0 0 0 1 164.0,138.2 H180.0 A4.0,4.0 0 0 1 184.0,142.2 V226.0 Z" fill="#2a78d6"/>
<text x="172.0" y="129.2" font-size="11.5" fill="#6e6d68" font-weight="400" text-anchor="middle" style="font-variant-numeric:tabular-nums">1.69× faster</text>
<text x="172.0" y="398.0" font-size="12" fill="#7f7e77" font-weight="400" text-anchor="middle">intersect</text>
<path d="M256.0,226.0 V270.6 A4.0,4.0 0 0 0 260.0,274.6 H276.0 A4.0,4.0 0 0 0 280.0,270.6 V226.0 Z" fill="#e34948"/>
<text x="268.0" y="291.6" font-size="11.5" fill="#6e6d68" font-weight="400" text-anchor="middle" style="font-variant-numeric:tabular-nums">1.34× slower</text>
<text x="268.0" y="398.0" font-size="12" fill="#7f7e77" font-weight="400" text-anchor="middle">sum</text>
<path d="M352.0,226.0 V169.7 A4.0,4.0 0 0 1 356.0,165.7 H372.0 A4.0,4.0 0 0 1 376.0,169.7 V226.0 Z" fill="#2a78d6"/>
<text x="364.0" y="156.7" font-size="11.5" fill="#6e6d68" font-weight="400" text-anchor="middle" style="font-variant-numeric:tabular-nums">1.43× faster</text>
<text x="364.0" y="398.0" font-size="12" fill="#7f7e77" font-weight="400" text-anchor="middle">group_by</text>
<path d="M448.0,226.0 V129.7 A4.0,4.0 0 0 1 452.0,125.7 H468.0 A4.0,4.0 0 0 1 472.0,129.7 V226.0 Z" fill="#2a78d6"/>
<text x="460.0" y="116.7" font-size="11.5" fill="#6e6d68" font-weight="400" text-anchor="middle" style="font-variant-numeric:tabular-nums">1.82× faster</text>
<text x="460.0" y="398.0" font-size="12" fill="#7f7e77" font-weight="400" text-anchor="middle">top_n</text>
<path d="M544.0,226.0 V345.7 A4.0,4.0 0 0 0 548.0,349.7 H564.0 A4.0,4.0 0 0 0 568.0,345.7 V226.0 Z" fill="#e34948"/>
<text x="556.0" y="366.7" font-size="11.5" fill="#6e6d68" font-weight="400" text-anchor="middle" style="font-variant-numeric:tabular-nums">2.09× slower</text>
<text x="556.0" y="398.0" font-size="12" fill="#7f7e77" font-weight="400" text-anchor="middle">distinct</text>
<text x="28.0" y="218.0" font-size="11" fill="#86857e" font-weight="400" text-anchor="start">1.00× — dead heat</text>
</svg>
